<svg width="80" height="80" viewBox="0 0 80 80" xmlns="http://www.w3.org/2000/svg" xmlns:xlink="http://www.w3.org/1999/xlink">
    <defs>
        <path id="iwi9utwlqa" d="M0 .677h4.441v6.621H0z"/>
    </defs>
    <g fill="none" fill-rule="evenodd">
        <circle fill="#F7F7F7" cx="40" cy="40" r="40"/>
        <g opacity=".4">
            <g transform="translate(27.778 24.444)">
                <mask id="kzycduuqjb" fill="#fff">
                    <use xlink:href="#iwi9utwlqa"/>
                </mask>
                <path d="M4.254 4.156C5.617.525-.938-1.51.114 4.452c.16 3.516 4.343 4.169 4.14-.296" fill="#333" mask="url(#kzycduuqjb)"/>
            </g>
            <path d="M51.868 30.046c1.844-3.373-4.121-6.325-4.003-.31-.373 3.479 3.532 4.728 4.003.31M44.054 35.953c11.532 2.001.895 14.802-5.786 13.702-15.679-6.843-9.517-17.97 5.786-13.702M30.463 55.259c5.323 1.913 11.284 1.845 16.556-.212.763-.298 1.446-.94 1.513-1.804.054-.686-.531-1.345-1.262-1.06a21.62 21.62 0 0 1-15.217.217c-1.399-.502-3.182 2.287-1.59 2.859" fill="#333"/>
            <path d="M39.36 54.355c-.034-.275-.063-.55-.082-.825-.009-.12-.014-.237-.022-.355.019.298-.001-.092-.001-.123-.01-.513.008-1.027.05-1.539.043-.513.12-1.018.205-1.525.052-.311-.059.246.017-.09a16.667 16.667 0 0 1 .298-1.146c.187-.634-.027-1.511-.839-1.484-.805.028-1.56.722-1.784 1.477a17.307 17.307 0 0 0-.593 7.056c.096.785 1.032.89 1.605.568.708-.397 1.247-1.18 1.145-2.014" fill="#333"/>
        </g>
    </g>
</svg>
